<svg width="30" height="30" viewBox="0 0 30 30" fill="none" xmlns="http://www.w3.org/2000/svg">
<g clip-path="url(#clip0_2_105)">
<path d="M15 2.5C8.10752 2.5 2.50002 8.1075 2.50002 15C2.50002 21.8925 8.10752 27.5 15 27.5C21.8925 27.5 27.5 21.8925 27.5 15C27.5 8.1075 21.8925 2.5 15 2.5ZM15 25C9.48627 25 5.00002 20.5137 5.00002 15C5.00002 9.48625 9.48627 5 15 5C20.5138 5 25 9.48625 25 15C25 20.5137 20.5138 25 15 25Z" fill="#09D743"/>
<path d="M12.4987 16.9838L9.625 14.115L7.86 15.885L12.5013 20.5163L20.8838 12.1338L19.1162 10.3663L12.4987 16.9838Z" fill="#09D743"/>
</g>
<defs>
<clipPath id="clip0_2_105">
<rect width="30" height="30" fill="white"/>
</clipPath>
</defs>
</svg>
